<svg xmlns="http://www.w3.org/2000/svg" width="300" height="200" viewBox="0 0 300 200">
  <rect width="300" height="200" rx="20" fill="#fff4f0" stroke="#e67e22" stroke-width="4"/>
  <g transform="translate(50, 50)">
    <path d="M30,0 L170,0 C185,0 200,15 200,30 L200,80 C200,95 185,110 170,110 L30,110 C15,110 0,95 0,80 L0,30 C0,15 15,0 30,0 Z" fill="#e67e22" opacity="0.1"/>
    <text x="100" y="45" font-family="Arial" font-size="22" font-weight="bold" text-anchor="middle" fill="#2c3e50">UsabilityUniverse</text>
    <text x="100" y="75" font-family="Arial" font-size="14" text-anchor="middle" fill="#7f8c8d">ISO 9241</text>
    <polygon points="35,35 55,35 65,55 45,75 25,75 15,55" fill="#e67e22" opacity="0.7"/>
    <polygon points="135,35 155,35 165,55 145,75 125,75 115,55" fill="#e67e22" opacity="0.7"/>
  </g>
</svg>